<svg xmlns="http://www.w3.org/2000/svg" version="1.1" xmlns:xlink="http://www.w3.org/1999/xlink" xmlns:svgjs="http://svgjs.dev/svgjs" width="1000" height="623" viewBox="0 0 1000 623"><g transform="matrix(1,0,0,1,-0.6060606060606233,0.2522267206477409)"><svg viewBox="0 0 396 247" data-background-color="#001f3f" preserveAspectRatio="xMidYMid meet" height="623" width="1000" xmlns="http://www.w3.org/2000/svg" xmlns:xlink="http://www.w3.org/1999/xlink"><defs></defs><g id="tight-bounds" transform="matrix(1,0,0,1,0.2400000000000091,-0.09999999999999432)"><svg viewBox="0 0 395.52 247.2" height="247.2" width="395.52"><g><svg></svg></g><g><svg viewBox="0 0 395.52 247.2" height="247.2" width="395.52"><g><path d="M55.039 247.2l29.456-51.02h2.401l-28.19 48.827h278.108l-28.19-48.827 2.401 0 29.456 51.02zM197.76 0l29.456 51.02-2.401 0-27.055-46.862-27.055 46.862-2.401 0z" fill="#ffa96a" data-fill-palette-color="tertiary"></path></g><g transform="matrix(1,0,0,1,0,71.7569167444889)"><svg viewBox="0 0 395.52 103.68616651102218" height="103.68616651102218" width="395.52"><g><svg viewBox="0 0 397.4976 104.20459734357729" height="103.68616651102218" width="395.52"><g><rect width="397.4976" height="3.1916491869144843" x="0" y="57.26626581259173" fill="#ffa96a" opacity="1" stroke-width="0" stroke="transparent" fill-opacity="1" class="rect-o-0" data-fill-palette-color="primary" rx="1%" id="o-0" data-palette-color="#ffa96a"></rect></g><g transform="matrix(1,0,0,1,0.9887999999999693,68.81301758305199)"><svg viewBox="0 0 395.52000000000004 35.391579760525296" height="35.391579760525296" width="395.52000000000004"><g><svg viewBox="0 0 395.52000000000004 35.391579760525296" height="35.391579760525296" width="395.52000000000004"><g><svg viewBox="0 0 395.52000000000004 35.391579760525296" height="35.391579760525296" width="395.52000000000004"><g transform="matrix(1,0,0,1,0,0)"><svg width="395.52000000000004" viewBox="2.299999952316284 -34.349998474121094 383.42999267578125 34.75" height="35.391579760525296" data-palette-color="#ffa96a"><g class="undefined-text-0" data-fill-palette-color="primary" id="text-0"><path d="M28.05-6.85L28.05-1.65Q24.95 0.4 19.45 0.4L19.45 0.4Q11.9 0.4 7.1-4.3 2.3-9 2.3-16.9L2.3-16.9Q2.3-24.55 7.13-29.35 11.95-34.15 19.35-34.15L19.35-34.15Q24.75-34.15 28-32.3L28-32.3 28-27.25Q25.8-28.45 24.03-28.93 22.25-29.4 19.5-29.4L19.5-29.4Q14.45-29.4 11.08-25.98 7.7-22.55 7.7-16.9L7.7-16.9Q7.7-11.15 11.05-7.75 14.4-4.35 19.9-4.35L19.9-4.35Q24.75-4.35 28.05-6.85L28.05-6.85ZM43.45-29.4L43.45-29.4 39.05-29.4 39.05-17.1 43.7-17.1Q46.9-17.1 48.55-18.78 50.2-20.45 50.2-23.25L50.2-23.25Q50.2-29.4 43.45-29.4ZM39.05-12.8L39.05 0 33.9 0 33.9-33.7 43.3-33.7Q49.1-33.7 52.25-30.88 55.4-28.05 55.4-23.2L55.4-23.2Q55.35-19.65 53.6-17.18 51.85-14.7 48.75-13.6L48.75-13.6 57.55 0 51.4 0 43.5-12.8 39.05-12.8ZM76.34-12.55L76.34 0 71.2 0 71.2-12.55 59.8-33.7 65.7-33.7 68.09-28.75Q70.4-24.1 71.8-21.1 73.2-18.1 73.45-17.4L73.45-17.4 73.75-16.75Q74.2-18.25 79.55-28.75L79.55-28.75 82-33.7 87.9-33.7 76.34-12.55ZM102.64-11.95L102.64-11.95 97.84-11.95 97.84 0 92.69 0 92.69-33.7 102.34-33.7Q108.14-33.7 111.54-30.63 114.94-27.55 114.94-22.75 114.94-17.95 111.52-14.95 108.09-11.95 102.64-11.95ZM102.14-29.45L102.14-29.45 97.84-29.45 97.84-16.2 102.24-16.2Q105.89-16.2 107.82-18 109.74-19.8 109.74-22.75L109.74-22.75Q109.74-25.85 107.79-27.65 105.84-29.45 102.14-29.45ZM140.44-33.7L140.44-29.4 131.59-29.4 131.59 0 126.44 0 126.44-29.4 117.64-29.4 117.64-33.7 140.44-33.7ZM170.64-29.63Q174.79-24.9 174.79-17 174.79-9.1 170.61-4.35 166.44 0.4 159.34 0.4L159.34 0.4Q152.29 0.4 148.06-4.35 143.84-9.1 143.84-17L143.84-17Q143.84-24.85 148.04-29.6 152.24-34.35 159.29-34.35L159.29-34.35Q166.49-34.35 170.64-29.63ZM151.91-26.18Q149.24-22.8 149.24-17 149.24-11.2 151.99-7.8 154.74-4.4 159.34-4.4L159.34-4.4Q164.09-4.4 166.74-7.75 169.39-11.1 169.39-17L169.39-17Q169.39-22.85 166.71-26.2 164.04-29.55 159.29-29.55L159.29-29.55Q154.59-29.55 151.91-26.18Z" fill="#ffa96a" data-fill-palette-color="primary"></path><path d="M188.39-11.95L188.39-11.95 183.59-11.95 183.59 0 178.44 0 178.44-33.7 188.09-33.7Q193.89-33.7 197.29-30.63 200.69-27.55 200.69-22.75 200.69-17.95 197.27-14.95 193.84-11.95 188.39-11.95ZM187.89-29.45L187.89-29.45 183.59-29.45 183.59-16.2 187.99-16.2Q191.64-16.2 193.57-18 195.49-19.8 195.49-22.75L195.49-22.75Q195.49-25.85 193.54-27.65 191.59-29.45 187.89-29.45ZM215.49-29.4L215.49-29.4 211.09-29.4 211.09-17.1 215.74-17.1Q218.94-17.1 220.59-18.78 222.24-20.45 222.24-23.25L222.24-23.25Q222.24-29.4 215.49-29.4ZM211.09-12.8L211.09 0 205.94 0 205.94-33.7 215.34-33.7Q221.14-33.7 224.29-30.88 227.44-28.05 227.44-23.2L227.44-23.2Q227.39-19.65 225.64-17.18 223.89-14.7 220.79-13.6L220.79-13.6 229.59 0 223.44 0 215.54-12.8 211.09-12.8ZM239.84-33.7L239.84 0 234.74 0 234.74-33.7 239.84-33.7ZM271.93-6.85L271.93-1.65Q268.83 0.4 263.33 0.4L263.33 0.4Q255.78 0.4 250.98-4.3 246.18-9 246.18-16.9L246.18-16.9Q246.18-24.55 251.01-29.35 255.83-34.15 263.23-34.15L263.23-34.15Q268.63-34.15 271.88-32.3L271.88-32.3 271.88-27.25Q269.68-28.45 267.91-28.93 266.13-29.4 263.38-29.4L263.38-29.4Q258.33-29.4 254.96-25.98 251.58-22.55 251.58-16.9L251.58-16.9Q251.58-11.15 254.93-7.75 258.28-4.35 263.78-4.35L263.78-4.35Q268.63-4.35 271.93-6.85L271.93-6.85ZM297.23-4.3L297.23 0 277.78 0 277.78-33.7 296.98-33.7 296.98-29.4 282.93-29.4 282.93-19 295.38-19 295.38-14.7 282.93-14.7 282.93-4.3 297.23-4.3Z" fill="#e65728" data-fill-palette-color="secondary"></path><path d="M313.83 0L313.83 0 300.88 0 300.88-33.7 311.93-33.7Q317.23-33.7 320.28-31.23 323.33-28.75 323.33-24.7L323.33-24.7Q323.33-21.9 321.76-19.8 320.18-17.7 317.73-17.1L317.73-17.1Q320.48-16.6 322.36-14.55 324.23-12.5 324.23-9.05L324.23-9.05Q324.23-5.05 321.51-2.53 318.78 0 313.83 0ZM311.53-29.45L311.53-29.45 306.03-29.45 306.03-19.1 310.68-19.1Q314.43-19.1 316.26-20.63 318.08-22.15 318.08-24.6L318.08-24.6Q318.08-26.75 316.46-28.1 314.83-29.45 311.53-29.45ZM312.13-14.9L312.13-14.9 306.03-14.9 306.03-4.25 312.63-4.25Q318.98-4.25 318.98-9.5L318.98-9.5Q318.98-12.05 317.26-13.48 315.53-14.9 312.13-14.9ZM355.38-29.63Q359.53-24.9 359.53-17 359.53-9.1 355.35-4.35 351.18 0.4 344.08 0.4L344.08 0.4Q337.03 0.4 332.8-4.35 328.58-9.1 328.58-17L328.58-17Q328.58-24.85 332.78-29.6 336.98-34.35 344.03-34.35L344.03-34.35Q351.23-34.35 355.38-29.63ZM336.65-26.18Q333.98-22.8 333.98-17 333.98-11.2 336.73-7.8 339.48-4.4 344.08-4.4L344.08-4.4Q348.83-4.4 351.48-7.75 354.13-11.1 354.13-17L354.13-17Q354.13-22.85 351.45-26.2 348.78-29.55 344.03-29.55L344.03-29.55Q339.33-29.55 336.65-26.18ZM385.73-33.7L385.73-29.4 376.87-29.4 376.87 0 371.73 0 371.73-29.4 362.92-29.4 362.92-33.7 385.73-33.7Z" fill="#ffa96a" data-fill-palette-color="primary"></path></g></svg></g></svg></g></svg></g></svg></g><g transform="matrix(1,0,0,1,174.29321838547702,0)"><svg viewBox="0 0 48.91116322904596 48.91116322904596" height="48.91116322904596" width="48.91116322904596"><g><svg xmlns="http://www.w3.org/2000/svg" xmlns:xlink="http://www.w3.org/1999/xlink" version="1.1" baseProfile="tiny" x="0" y="0" viewBox="0 0 100 100" xml:space="preserve" height="48.91116322904596" width="48.91116322904596" class="icon-icon-0" data-fill-palette-color="accent" id="icon-0"><path d="M100 52.993v-6.004H53.466v-3.947h45.905c0 0-3.666-37.641-41.991-42.47v34.642h31.661c0 0-5.333-14.49-13.331-17.821v11.992H63.546V8.566c0 0 22.161 3.165 29.327 29.313l-39.407-0.232V0h-6.005v37.611L8.058 37.379c0 0 5.331-23.317 29.826-29.812l-0.333 21.818H25.554V17.061c0 0-9.998 4.996-13.997 18.154H43.05V0.739c0 0-37.326 5.496-42.491 42.303h46.902v3.947H0v6.004h47.461v4.537H0.642c5.166 36.806 42.492 42.302 42.492 42.302V65.357H11.64c3.999 13.158 13.997 18.154 13.997 18.154V71.187h11.998l0.333 21.818C13.473 86.51 8.141 63.192 8.141 63.192l39.32-0.231v36.988h6.005V62.925l39.49-0.231c-7.165 26.147-29.327 29.313-29.327 29.313V71.187h12.165v11.991c7.998-3.33 13.33-17.819 13.33-17.819H57.463V100c38.326-4.829 41.992-42.47 41.992-42.47H53.466v-4.537H100z" fill="#e65728" data-fill-palette-color="accent"></path></svg></g></svg></g><g></g></svg></g></svg></g></svg></g></svg><rect width="395.52" height="247.2" fill="none" stroke="none" visibility="hidden"></rect></g></svg></g></svg>